{
	"asset":{
		"generator":"Khronos glTF Blender I/O v4.2.60",
		"version":"2.0"
	},
	"extensionsUsed":[
		"KHR_materials_unlit"
	],
	"scene":0,
	"scenes":[
		{
			"name":"Scene",
			"nodes":[
				0
			]
		}
	],
	"nodes":[
		{
			"mesh":0,
			"name":"Cube",
			"rotation":[
				0.5031079053878784,
				0.48453253507614136,
				0.6454710364341736,
				0.3089948892593384
			],
			"translation":[
				-1.091752052307129,
				-5.144233703613281,
				-4.563691139221191
			]
		}
	],
	"animations":[
		{
			"channels":[
				{
					"sampler":0,
					"target":{
						"node":0,
						"path":"translation"
					}
				},
				{
					"sampler":1,
					"target":{
						"node":0,
						"path":"rotation"
					}
				},
				{
					"sampler":2,
					"target":{
						"node":0,
						"path":"scale"
					}
				}
			],
			"name":"Attack.001",
			"samplers":[
				{
					"input":4,
					"interpolation":"LINEAR",
					"output":5
				},
				{
					"input":4,
					"interpolation":"LINEAR",
					"output":6
				},
				{
					"input":7,
					"interpolation":"STEP",
					"output":8
				}
			]
		},
		{
			"channels":[
				{
					"sampler":0,
					"target":{
						"node":0,
						"path":"translation"
					}
				},
				{
					"sampler":1,
					"target":{
						"node":0,
						"path":"rotation"
					}
				},
				{
					"sampler":2,
					"target":{
						"node":0,
						"path":"scale"
					}
				}
			],
			"name":"Attack.002",
			"samplers":[
				{
					"input":9,
					"interpolation":"LINEAR",
					"output":10
				},
				{
					"input":9,
					"interpolation":"LINEAR",
					"output":11
				},
				{
					"input":12,
					"interpolation":"STEP",
					"output":13
				}
			]
		},
		{
			"channels":[
				{
					"sampler":0,
					"target":{
						"node":0,
						"path":"translation"
					}
				},
				{
					"sampler":1,
					"target":{
						"node":0,
						"path":"rotation"
					}
				},
				{
					"sampler":2,
					"target":{
						"node":0,
						"path":"scale"
					}
				}
			],
			"name":"Idle",
			"samplers":[
				{
					"input":14,
					"interpolation":"LINEAR",
					"output":15
				},
				{
					"input":16,
					"interpolation":"STEP",
					"output":17
				},
				{
					"input":16,
					"interpolation":"STEP",
					"output":18
				}
			]
		},
		{
			"channels":[
				{
					"sampler":0,
					"target":{
						"node":0,
						"path":"translation"
					}
				},
				{
					"sampler":1,
					"target":{
						"node":0,
						"path":"rotation"
					}
				},
				{
					"sampler":2,
					"target":{
						"node":0,
						"path":"scale"
					}
				}
			],
			"name":"Select",
			"samplers":[
				{
					"input":19,
					"interpolation":"LINEAR",
					"output":20
				},
				{
					"input":19,
					"interpolation":"LINEAR",
					"output":21
				},
				{
					"input":22,
					"interpolation":"STEP",
					"output":23
				}
			]
		},
		{
			"channels":[
				{
					"sampler":0,
					"target":{
						"node":0,
						"path":"translation"
					}
				},
				{
					"sampler":1,
					"target":{
						"node":0,
						"path":"rotation"
					}
				},
				{
					"sampler":2,
					"target":{
						"node":0,
						"path":"scale"
					}
				}
			],
			"name":"Sequence",
			"samplers":[
				{
					"input":24,
					"interpolation":"LINEAR",
					"output":25
				},
				{
					"input":24,
					"interpolation":"LINEAR",
					"output":26
				},
				{
					"input":27,
					"interpolation":"STEP",
					"output":28
				}
			]
		}
	],
	"materials":[
		{
			"doubleSided":true,
			"extensions":{
				"KHR_materials_unlit":{}
			},
			"name":"Material",
			"pbrMetallicRoughness":{
				"baseColorTexture":{
					"index":0
				},
				"metallicFactor":0,
				"roughnessFactor":0.9
			}
		}
	],
	"meshes":[
		{
			"name":"Cube",
			"primitives":[
				{
					"attributes":{
						"POSITION":0,
						"NORMAL":1,
						"TEXCOORD_0":2
					},
					"indices":3,
					"material":0
				}
			]
		}
	],
	"textures":[
		{
			"sampler":0,
			"source":0
		}
	],
	"images":[
		{
			"mimeType":"image/png",
			"name":"axe_texture",
			"uri":"axe_texture.png"
		}
	],
	"accessors":[
		{
			"bufferView":0,
			"componentType":5126,
			"count":442,
			"max":[
				0.1836671680212021,
				0.7090821266174316,
				2.2304434776306152
			],
			"min":[
				-0.1836671680212021,
				-0.6987869143486023,
				-2.213646173477173
			],
			"type":"VEC3"
		},
		{
			"bufferView":1,
			"componentType":5126,
			"count":442,
			"type":"VEC3"
		},
		{
			"bufferView":2,
			"componentType":5126,
			"count":442,
			"type":"VEC2"
		},
		{
			"bufferView":3,
			"componentType":5123,
			"count":2520,
			"type":"SCALAR"
		},
		{
			"bufferView":4,
			"componentType":5126,
			"count":63,
			"max":[
				1.0333333333333334
			],
			"min":[
				0
			],
			"type":"SCALAR"
		},
		{
			"bufferView":5,
			"componentType":5126,
			"count":63,
			"type":"VEC3"
		},
		{
			"bufferView":6,
			"componentType":5126,
			"count":63,
			"type":"VEC4"
		},
		{
			"bufferView":7,
			"componentType":5126,
			"count":2,
			"max":[
				1.0333333333333334
			],
			"min":[
				0
			],
			"type":"SCALAR"
		},
		{
			"bufferView":8,
			"componentType":5126,
			"count":2,
			"type":"VEC3"
		},
		{
			"bufferView":9,
			"componentType":5126,
			"count":60,
			"max":[
				0.9833333333333333
			],
			"min":[
				0
			],
			"type":"SCALAR"
		},
		{
			"bufferView":10,
			"componentType":5126,
			"count":60,
			"type":"VEC3"
		},
		{
			"bufferView":11,
			"componentType":5126,
			"count":60,
			"type":"VEC4"
		},
		{
			"bufferView":12,
			"componentType":5126,
			"count":2,
			"max":[
				0.9833333333333333
			],
			"min":[
				0
			],
			"type":"SCALAR"
		},
		{
			"bufferView":13,
			"componentType":5126,
			"count":2,
			"type":"VEC3"
		},
		{
			"bufferView":14,
			"componentType":5126,
			"count":111,
			"max":[
				1.8333333333333333
			],
			"min":[
				0
			],
			"type":"SCALAR"
		},
		{
			"bufferView":15,
			"componentType":5126,
			"count":111,
			"type":"VEC3"
		},
		{
			"bufferView":16,
			"componentType":5126,
			"count":2,
			"max":[
				1.8333333333333333
			],
			"min":[
				0
			],
			"type":"SCALAR"
		},
		{
			"bufferView":17,
			"componentType":5126,
			"count":2,
			"type":"VEC4"
		},
		{
			"bufferView":18,
			"componentType":5126,
			"count":2,
			"type":"VEC3"
		},
		{
			"bufferView":19,
			"componentType":5126,
			"count":61,
			"max":[
				1
			],
			"min":[
				0
			],
			"type":"SCALAR"
		},
		{
			"bufferView":20,
			"componentType":5126,
			"count":61,
			"type":"VEC3"
		},
		{
			"bufferView":21,
			"componentType":5126,
			"count":61,
			"type":"VEC4"
		},
		{
			"bufferView":22,
			"componentType":5126,
			"count":2,
			"max":[
				1
			],
			"min":[
				0
			],
			"type":"SCALAR"
		},
		{
			"bufferView":23,
			"componentType":5126,
			"count":2,
			"type":"VEC3"
		},
		{
			"bufferView":24,
			"componentType":5126,
			"count":405,
			"max":[
				6.733333333333333
			],
			"min":[
				0
			],
			"type":"SCALAR"
		},
		{
			"bufferView":25,
			"componentType":5126,
			"count":405,
			"type":"VEC3"
		},
		{
			"bufferView":26,
			"componentType":5126,
			"count":405,
			"type":"VEC4"
		},
		{
			"bufferView":27,
			"componentType":5126,
			"count":2,
			"max":[
				6.733333333333333
			],
			"min":[
				0
			],
			"type":"SCALAR"
		},
		{
			"bufferView":28,
			"componentType":5126,
			"count":2,
			"type":"VEC3"
		}
	],
	"bufferViews":[
		{
			"buffer":0,
			"byteLength":5304,
			"byteOffset":0,
			"target":34962
		},
		{
			"buffer":0,
			"byteLength":5304,
			"byteOffset":5304,
			"target":34962
		},
		{
			"buffer":0,
			"byteLength":3536,
			"byteOffset":10608,
			"target":34962
		},
		{
			"buffer":0,
			"byteLength":5040,
			"byteOffset":14144,
			"target":34963
		},
		{
			"buffer":0,
			"byteLength":252,
			"byteOffset":19184
		},
		{
			"buffer":0,
			"byteLength":756,
			"byteOffset":19436
		},
		{
			"buffer":0,
			"byteLength":1008,
			"byteOffset":20192
		},
		{
			"buffer":0,
			"byteLength":8,
			"byteOffset":21200
		},
		{
			"buffer":0,
			"byteLength":24,
			"byteOffset":21208
		},
		{
			"buffer":0,
			"byteLength":240,
			"byteOffset":21232
		},
		{
			"buffer":0,
			"byteLength":720,
			"byteOffset":21472
		},
		{
			"buffer":0,
			"byteLength":960,
			"byteOffset":22192
		},
		{
			"buffer":0,
			"byteLength":8,
			"byteOffset":23152
		},
		{
			"buffer":0,
			"byteLength":24,
			"byteOffset":23160
		},
		{
			"buffer":0,
			"byteLength":444,
			"byteOffset":23184
		},
		{
			"buffer":0,
			"byteLength":1332,
			"byteOffset":23628
		},
		{
			"buffer":0,
			"byteLength":8,
			"byteOffset":24960
		},
		{
			"buffer":0,
			"byteLength":32,
			"byteOffset":24968
		},
		{
			"buffer":0,
			"byteLength":24,
			"byteOffset":25000
		},
		{
			"buffer":0,
			"byteLength":244,
			"byteOffset":25024
		},
		{
			"buffer":0,
			"byteLength":732,
			"byteOffset":25268
		},
		{
			"buffer":0,
			"byteLength":976,
			"byteOffset":26000
		},
		{
			"buffer":0,
			"byteLength":8,
			"byteOffset":26976
		},
		{
			"buffer":0,
			"byteLength":24,
			"byteOffset":26984
		},
		{
			"buffer":0,
			"byteLength":1620,
			"byteOffset":27008
		},
		{
			"buffer":0,
			"byteLength":4860,
			"byteOffset":28628
		},
		{
			"buffer":0,
			"byteLength":6480,
			"byteOffset":33488
		},
		{
			"buffer":0,
			"byteLength":8,
			"byteOffset":39968
		},
		{
			"buffer":0,
			"byteLength":24,
			"byteOffset":39976
		}
	],
	"samplers":[
		{
			"magFilter":9729,
			"minFilter":9987
		}
	],
	"buffers":[
		{
			"byteLength":40000,
			"uri":"vanilla_old_axe_viewmodel.bin"
		}
	]
}
