{
	"asset":{
		"generator":"Khronos glTF Blender I/O v4.1.63",
		"version":"2.0"
	},
	"extensionsUsed":[
		"KHR_materials_unlit"
	],
	"scene":0,
	"scenes":[
		{
			"name":"Scene",
			"nodes":[
				0
			]
		}
	],
	"nodes":[
		{
			"mesh":0,
			"name":"Cube.006"
		}
	],
	"materials":[
		{
			"doubleSided":true,
			"extensions":{
				"KHR_materials_unlit":{}
			},
			"name":"Material.001",
			"pbrMetallicRoughness":{
				"metallicFactor":0,
				"roughnessFactor":0.9
			}
		}
	],
	"meshes":[
		{
			"name":"Cube.011",
			"primitives":[
				{
					"attributes":{
						"POSITION":0,
						"NORMAL":1,
						"TEXCOORD_0":2
					},
					"indices":3,
					"material":0
				}
			]
		}
	],
	"accessors":[
		{
			"bufferView":0,
			"componentType":5126,
			"count":539,
			"max":[
				0.298444926738739,
				1.8041565418243408,
				0.2185184508562088
			],
			"min":[
				-0.298444926738739,
				0.00043576955795288086,
				-0.12518680095672607
			],
			"type":"VEC3"
		},
		{
			"bufferView":1,
			"componentType":5126,
			"count":539,
			"type":"VEC3"
		},
		{
			"bufferView":2,
			"componentType":5126,
			"count":539,
			"type":"VEC2"
		},
		{
			"bufferView":3,
			"componentType":5123,
			"count":1884,
			"type":"SCALAR"
		}
	],
	"bufferViews":[
		{
			"buffer":0,
			"byteLength":6468,
			"byteOffset":0,
			"target":34962
		},
		{
			"buffer":0,
			"byteLength":6468,
			"byteOffset":6468,
			"target":34962
		},
		{
			"buffer":0,
			"byteLength":4312,
			"byteOffset":12936,
			"target":34962
		},
		{
			"buffer":0,
			"byteLength":3768,
			"byteOffset":17248,
			"target":34963
		}
	],
	"buffers":[
		{
			"byteLength":21016,
			"uri":"character_no_head.bin"
		}
	]
}
