{
	"asset":{
		"generator":"Khronos glTF Blender I/O v4.1.62",
		"version":"2.0"
	},
	"scene":0,
	"scenes":[
		{
			"name":"Scene",
			"nodes":[
				0
			]
		}
	],
	"nodes":[
		{
			"mesh":0,
			"name":"Tile01"
		}
	],
	"materials":[
		{
			"doubleSided":true,
			"name":"Material.001",
			"pbrMetallicRoughness":{}
		}
	],
	"meshes":[
		{
			"name":"Plane.002",
			"primitives":[
				{
					"attributes":{
						"POSITION":0,
						"NORMAL":1,
						"TEXCOORD_0":2
					},
					"indices":3,
					"material":0
				}
			]
		}
	],
	"accessors":[
		{
			"bufferView":0,
			"componentType":5126,
			"count":1098,
			"max":[
				51.24650573730469,
				5.66677713394165,
				51.80549621582031
			],
			"min":[
				-51.553287506103516,
				-7.2325286865234375,
				-50.68203353881836
			],
			"type":"VEC3"
		},
		{
			"bufferView":1,
			"componentType":5126,
			"count":1098,
			"type":"VEC3"
		},
		{
			"bufferView":2,
			"componentType":5126,
			"count":1098,
			"type":"VEC2"
		},
		{
			"bufferView":3,
			"componentType":5123,
			"count":6297,
			"type":"SCALAR"
		}
	],
	"bufferViews":[
		{
			"buffer":0,
			"byteLength":13176,
			"byteOffset":0,
			"target":34962
		},
		{
			"buffer":0,
			"byteLength":13176,
			"byteOffset":13176,
			"target":34962
		},
		{
			"buffer":0,
			"byteLength":8784,
			"byteOffset":26352,
			"target":34962
		},
		{
			"buffer":0,
			"byteLength":12594,
			"byteOffset":35136,
			"target":34963
		}
	],
	"buffers":[
		{
			"byteLength":47732,
			"uri":"ground_1.bin"
		}
	]
}
