{
	"asset":{
		"generator":"Khronos glTF Blender I/O v4.1.62",
		"version":"2.0"
	},
	"scene":0,
	"scenes":[
		{
			"name":"Scene",
			"nodes":[
				0,
				1,
				2,
				3
			]
		}
	],
	"nodes":[
		{
			"mesh":0,
			"name":"Tile01"
		},
		{
			"mesh":1,
			"name":"Tree01",
			"translation":[
				-25.225479125976562,
				5.25166654586792,
				6.585383892059326
			]
		},
		{
			"mesh":2,
			"name":"Tree02",
			"translation":[
				-22.7264404296875,
				4.526528835296631,
				9.870407104492188
			]
		},
		{
			"mesh":3,
			"name":"Stone01",
			"translation":[
				-21.239456176757812,
				4.311461925506592,
				15.91546630859375
			]
		}
	],
	"materials":[
		{
			"doubleSided":true,
			"name":"Material",
			"pbrMetallicRoughness":{}
		},
		{
			"doubleSided":true,
			"name":"Material.003",
			"pbrMetallicRoughness":{
				"baseColorFactor":[
					0.4735288918018341,
					0.18782095611095428,
					0.1221388578414917,
					1
				],
				"metallicFactor":0,
				"roughnessFactor":1
			}
		},
		{
			"doubleSided":true,
			"name":"Material.004",
			"pbrMetallicRoughness":{
				"baseColorFactor":[
					0.7835326194763184,
					0.8631579279899597,
					0.8631576299667358,
					1
				],
				"metallicFactor":0,
				"roughnessFactor":1
			}
		}
	],
	"meshes":[
		{
			"name":"Plane.002",
			"primitives":[
				{
					"attributes":{
						"POSITION":0,
						"NORMAL":1,
						"TEXCOORD_0":2
					},
					"indices":3,
					"material":0
				}
			]
		},
		{
			"name":"Cylinder.001",
			"primitives":[
				{
					"attributes":{
						"POSITION":4,
						"NORMAL":5,
						"TEXCOORD_0":6
					},
					"indices":7,
					"material":1
				},
				{
					"attributes":{
						"POSITION":8,
						"NORMAL":9,
						"TEXCOORD_0":10
					},
					"indices":11,
					"material":0
				}
			]
		},
		{
			"name":"Cylinder.003",
			"primitives":[
				{
					"attributes":{
						"POSITION":12,
						"NORMAL":13,
						"TEXCOORD_0":14
					},
					"indices":7,
					"material":2
				},
				{
					"attributes":{
						"POSITION":15,
						"NORMAL":16,
						"TEXCOORD_0":17
					},
					"indices":11,
					"material":0
				}
			]
		},
		{
			"name":"Icosphere.002",
			"primitives":[
				{
					"attributes":{
						"POSITION":18,
						"NORMAL":19,
						"TEXCOORD_0":20
					},
					"indices":21,
					"material":0
				}
			]
		}
	],
	"accessors":[
		{
			"bufferView":0,
			"componentType":5126,
			"count":1098,
			"max":[
				51.24650573730469,
				5.66677713394165,
				51.80549621582031
			],
			"min":[
				-51.553287506103516,
				-7.2325286865234375,
				-50.68203353881836
			],
			"type":"VEC3"
		},
		{
			"bufferView":1,
			"componentType":5126,
			"count":1098,
			"type":"VEC3"
		},
		{
			"bufferView":2,
			"componentType":5126,
			"count":1098,
			"type":"VEC2"
		},
		{
			"bufferView":3,
			"componentType":5123,
			"count":6297,
			"type":"SCALAR"
		},
		{
			"bufferView":4,
			"componentType":5126,
			"count":84,
			"max":[
				0.8453738689422607,
				3.386638641357422,
				0.46164390444755554
			],
			"min":[
				-1.1658647060394287,
				2.0396974086761475,
				-0.8353131413459778
			],
			"type":"VEC3"
		},
		{
			"bufferView":5,
			"componentType":5126,
			"count":84,
			"type":"VEC3"
		},
		{
			"bufferView":6,
			"componentType":5126,
			"count":84,
			"type":"VEC2"
		},
		{
			"bufferView":7,
			"componentType":5123,
			"count":246,
			"type":"SCALAR"
		},
		{
			"bufferView":8,
			"componentType":5126,
			"count":55,
			"max":[
				1.0913022756576538,
				4.147615909576416,
				0.5690614581108093
			],
			"min":[
				-1.011823058128357,
				0,
				-1.4443060159683228
			],
			"type":"VEC3"
		},
		{
			"bufferView":9,
			"componentType":5126,
			"count":55,
			"type":"VEC3"
		},
		{
			"bufferView":10,
			"componentType":5126,
			"count":55,
			"type":"VEC2"
		},
		{
			"bufferView":11,
			"componentType":5123,
			"count":306,
			"type":"SCALAR"
		},
		{
			"bufferView":12,
			"componentType":5126,
			"count":84,
			"max":[
				0.876585066318512,
				4.6486711502075195,
				0.4616438150405884
			],
			"min":[
				-1.163353443145752,
				3.142307758331299,
				-1.2760909795761108
			],
			"type":"VEC3"
		},
		{
			"bufferView":13,
			"componentType":5126,
			"count":84,
			"type":"VEC3"
		},
		{
			"bufferView":14,
			"componentType":5126,
			"count":84,
			"type":"VEC2"
		},
		{
			"bufferView":15,
			"componentType":5126,
			"count":55,
			"max":[
				1.0912986993789673,
				5.370426177978516,
				0.8951538801193237
			],
			"min":[
				-1.011826515197754,
				0,
				-1.4443131685256958
			],
			"type":"VEC3"
		},
		{
			"bufferView":16,
			"componentType":5126,
			"count":55,
			"type":"VEC3"
		},
		{
			"bufferView":17,
			"componentType":5126,
			"count":55,
			"type":"VEC2"
		},
		{
			"bufferView":18,
			"componentType":5126,
			"count":488,
			"max":[
				1.3777016401290894,
				1.6686453819274902,
				1.3204667568206787
			],
			"min":[
				-1.6117606163024902,
				-0.4850151538848877,
				-1.6303657293319702
			],
			"type":"VEC3"
		},
		{
			"bufferView":19,
			"componentType":5126,
			"count":488,
			"type":"VEC3"
		},
		{
			"bufferView":20,
			"componentType":5126,
			"count":488,
			"type":"VEC2"
		},
		{
			"bufferView":21,
			"componentType":5123,
			"count":2856,
			"type":"SCALAR"
		}
	],
	"bufferViews":[
		{
			"buffer":0,
			"byteLength":13176,
			"byteOffset":0,
			"target":34962
		},
		{
			"buffer":0,
			"byteLength":13176,
			"byteOffset":13176,
			"target":34962
		},
		{
			"buffer":0,
			"byteLength":8784,
			"byteOffset":26352,
			"target":34962
		},
		{
			"buffer":0,
			"byteLength":12594,
			"byteOffset":35136,
			"target":34963
		},
		{
			"buffer":0,
			"byteLength":1008,
			"byteOffset":47732,
			"target":34962
		},
		{
			"buffer":0,
			"byteLength":1008,
			"byteOffset":48740,
			"target":34962
		},
		{
			"buffer":0,
			"byteLength":672,
			"byteOffset":49748,
			"target":34962
		},
		{
			"buffer":0,
			"byteLength":492,
			"byteOffset":50420,
			"target":34963
		},
		{
			"buffer":0,
			"byteLength":660,
			"byteOffset":50912,
			"target":34962
		},
		{
			"buffer":0,
			"byteLength":660,
			"byteOffset":51572,
			"target":34962
		},
		{
			"buffer":0,
			"byteLength":440,
			"byteOffset":52232,
			"target":34962
		},
		{
			"buffer":0,
			"byteLength":612,
			"byteOffset":52672,
			"target":34963
		},
		{
			"buffer":0,
			"byteLength":1008,
			"byteOffset":53284,
			"target":34962
		},
		{
			"buffer":0,
			"byteLength":1008,
			"byteOffset":54292,
			"target":34962
		},
		{
			"buffer":0,
			"byteLength":672,
			"byteOffset":55300,
			"target":34962
		},
		{
			"buffer":0,
			"byteLength":660,
			"byteOffset":55972,
			"target":34962
		},
		{
			"buffer":0,
			"byteLength":660,
			"byteOffset":56632,
			"target":34962
		},
		{
			"buffer":0,
			"byteLength":440,
			"byteOffset":57292,
			"target":34962
		},
		{
			"buffer":0,
			"byteLength":5856,
			"byteOffset":57732,
			"target":34962
		},
		{
			"buffer":0,
			"byteLength":5856,
			"byteOffset":63588,
			"target":34962
		},
		{
			"buffer":0,
			"byteLength":3904,
			"byteOffset":69444,
			"target":34962
		},
		{
			"buffer":0,
			"byteLength":5712,
			"byteOffset":73348,
			"target":34963
		}
	],
	"buffers":[
		{
			"byteLength":79060,
			"uri":"new_palette_test_tile.bin"
		}
	]
}
