{
	"asset":{
		"generator":"Khronos glTF Blender I/O v4.1.63",
		"version":"2.0"
	},
	"scene":0,
	"scenes":[
		{
			"name":"Scene",
			"nodes":[
				0
			]
		}
	],
	"nodes":[
		{
			"mesh":0,
			"name":"Stone01"
		}
	],
	"materials":[
		{
			"name":"Material",
			"pbrMetallicRoughness":{}
		}
	],
	"meshes":[
		{
			"name":"Icosphere.002",
			"primitives":[
				{
					"attributes":{
						"POSITION":0,
						"NORMAL":1,
						"TEXCOORD_0":2
					},
					"indices":3,
					"material":0
				}
			]
		}
	],
	"accessors":[
		{
			"bufferView":0,
			"componentType":5126,
			"count":739,
			"max":[
				1.3777016401290894,
				1.6686453819274902,
				1.3204667568206787
			],
			"min":[
				-1.6117606163024902,
				-0.4850151538848877,
				-1.6303657293319702
			],
			"type":"VEC3"
		},
		{
			"bufferView":1,
			"componentType":5126,
			"count":739,
			"type":"VEC3"
		},
		{
			"bufferView":2,
			"componentType":5126,
			"count":739,
			"type":"VEC2"
		},
		{
			"bufferView":3,
			"componentType":5123,
			"count":2856,
			"type":"SCALAR"
		}
	],
	"bufferViews":[
		{
			"buffer":0,
			"byteLength":8868,
			"byteOffset":0,
			"target":34962
		},
		{
			"buffer":0,
			"byteLength":8868,
			"byteOffset":8868,
			"target":34962
		},
		{
			"buffer":0,
			"byteLength":5912,
			"byteOffset":17736,
			"target":34962
		},
		{
			"buffer":0,
			"byteLength":5712,
			"byteOffset":23648,
			"target":34963
		}
	],
	"buffers":[
		{
			"byteLength":29360,
			"uri":"rock1.bin"
		}
	]
}
