{
	"asset":{
		"generator":"Khronos glTF Blender I/O v4.1.62",
		"version":"2.0"
	},
	"scene":0,
	"scenes":[
		{
			"name":"Scene",
			"nodes":[
				0,
				1,
				2,
				3
			]
		}
	],
	"nodes":[
		{
			"mesh":0,
			"name":"Tile01"
		},
		{
			"mesh":1,
			"name":"Tree01",
			"translation":[
				-23.62083625793457,
				4.944655418395996,
				8.30963134765625
			]
		},
		{
			"mesh":2,
			"name":"Tree02",
			"translation":[
				-22.7264404296875,
				4.526528835296631,
				9.870407104492188
			]
		},
		{
			"mesh":3,
			"name":"Stone01",
			"translation":[
				-21.239456176757812,
				4.311461925506592,
				15.91546630859375
			]
		}
	],
	"materials":[
		{
			"doubleSided":true,
			"name":"Material.011",
			"pbrMetallicRoughness":{
				"baseColorTexture":{
					"index":0
				}
			}
		},
		{
			"doubleSided":true,
			"name":"Material",
			"pbrMetallicRoughness":{}
		},
		{
			"doubleSided":true,
			"name":"Material.016",
			"pbrMetallicRoughness":{
				"baseColorFactor":[
					0.3185447156429291,
					0.3967556059360504,
					0.27467742562294006,
					1
				],
				"metallicFactor":0
			}
		},
		{
			"doubleSided":true,
			"name":"Material.017",
			"pbrMetallicRoughness":{
				"baseColorFactor":[
					0.6724387407302856,
					0.8069530725479126,
					0.7083761692047119,
					1
				],
				"metallicFactor":0
			}
		}
	],
	"meshes":[
		{
			"name":"Plane.001",
			"primitives":[
				{
					"attributes":{
						"POSITION":0,
						"NORMAL":1,
						"TEXCOORD_0":2
					},
					"indices":3,
					"material":0
				}
			]
		},
		{
			"name":"Cylinder.002",
			"primitives":[
				{
					"attributes":{
						"POSITION":4,
						"NORMAL":5,
						"TEXCOORD_0":6
					},
					"indices":7,
					"material":1
				}
			]
		},
		{
			"name":"Cylinder.004",
			"primitives":[
				{
					"attributes":{
						"POSITION":8,
						"NORMAL":9,
						"TEXCOORD_0":10
					},
					"indices":11,
					"material":1
				}
			]
		},
		{
			"name":"Icosphere.001",
			"primitives":[
				{
					"attributes":{
						"POSITION":12,
						"NORMAL":13,
						"TEXCOORD_0":14
					},
					"indices":15,
					"material":2
				},
				{
					"attributes":{
						"POSITION":16,
						"NORMAL":17,
						"TEXCOORD_0":18
					},
					"indices":19,
					"material":3
				}
			]
		}
	],
	"textures":[
		{
			"sampler":0,
			"source":0
		}
	],
	"images":[
		{
			"mimeType":"image/png",
			"name":"biome1_rock1",
			"uri":"biome1_rock1.png"
		}
	],
	"accessors":[
		{
			"bufferView":0,
			"componentType":5126,
			"count":1098,
			"max":[
				51.24650573730469,
				5.66677713394165,
				51.80549621582031
			],
			"min":[
				-51.553287506103516,
				-7.2325286865234375,
				-50.68203353881836
			],
			"type":"VEC3"
		},
		{
			"bufferView":1,
			"componentType":5126,
			"count":1098,
			"type":"VEC3"
		},
		{
			"bufferView":2,
			"componentType":5126,
			"count":1098,
			"type":"VEC2"
		},
		{
			"bufferView":3,
			"componentType":5123,
			"count":6297,
			"type":"SCALAR"
		},
		{
			"bufferView":4,
			"componentType":5126,
			"count":136,
			"max":[
				1.0913022756576538,
				4.147615909576416,
				0.5690614581108093
			],
			"min":[
				-1.1658647060394287,
				0,
				-1.4443060159683228
			],
			"type":"VEC3"
		},
		{
			"bufferView":5,
			"componentType":5126,
			"count":136,
			"type":"VEC3"
		},
		{
			"bufferView":6,
			"componentType":5126,
			"count":136,
			"type":"VEC2"
		},
		{
			"bufferView":7,
			"componentType":5123,
			"count":552,
			"type":"SCALAR"
		},
		{
			"bufferView":8,
			"componentType":5126,
			"count":133,
			"max":[
				1.0912991762161255,
				5.370426177978516,
				0.8951538801193237
			],
			"min":[
				-1.1633539199829102,
				0,
				-1.4443131685256958
			],
			"type":"VEC3"
		},
		{
			"bufferView":9,
			"componentType":5126,
			"count":133,
			"type":"VEC3"
		},
		{
			"bufferView":10,
			"componentType":5126,
			"count":133,
			"type":"VEC2"
		},
		{
			"bufferView":11,
			"componentType":5123,
			"count":552,
			"type":"SCALAR"
		},
		{
			"bufferView":12,
			"componentType":5126,
			"count":444,
			"max":[
				1.3777016401290894,
				1.4157648086547852,
				1.1621826887130737
			],
			"min":[
				-1.6117606163024902,
				-0.4850151538848877,
				-1.6303657293319702
			],
			"type":"VEC3"
		},
		{
			"bufferView":13,
			"componentType":5126,
			"count":444,
			"type":"VEC3"
		},
		{
			"bufferView":14,
			"componentType":5126,
			"count":444,
			"type":"VEC2"
		},
		{
			"bufferView":15,
			"componentType":5123,
			"count":2652,
			"type":"SCALAR"
		},
		{
			"bufferView":16,
			"componentType":5126,
			"count":51,
			"max":[
				1.267080307006836,
				1.6686453819274902,
				1.3204667568206787
			],
			"min":[
				-1.3723764419555664,
				0.2334630936384201,
				-1.3048815727233887
			],
			"type":"VEC3"
		},
		{
			"bufferView":17,
			"componentType":5126,
			"count":51,
			"type":"VEC3"
		},
		{
			"bufferView":18,
			"componentType":5126,
			"count":51,
			"type":"VEC2"
		},
		{
			"bufferView":19,
			"componentType":5123,
			"count":204,
			"type":"SCALAR"
		}
	],
	"bufferViews":[
		{
			"buffer":0,
			"byteLength":13176,
			"byteOffset":0,
			"target":34962
		},
		{
			"buffer":0,
			"byteLength":13176,
			"byteOffset":13176,
			"target":34962
		},
		{
			"buffer":0,
			"byteLength":8784,
			"byteOffset":26352,
			"target":34962
		},
		{
			"buffer":0,
			"byteLength":12594,
			"byteOffset":35136,
			"target":34963
		},
		{
			"buffer":0,
			"byteLength":1632,
			"byteOffset":47732,
			"target":34962
		},
		{
			"buffer":0,
			"byteLength":1632,
			"byteOffset":49364,
			"target":34962
		},
		{
			"buffer":0,
			"byteLength":1088,
			"byteOffset":50996,
			"target":34962
		},
		{
			"buffer":0,
			"byteLength":1104,
			"byteOffset":52084,
			"target":34963
		},
		{
			"buffer":0,
			"byteLength":1596,
			"byteOffset":53188,
			"target":34962
		},
		{
			"buffer":0,
			"byteLength":1596,
			"byteOffset":54784,
			"target":34962
		},
		{
			"buffer":0,
			"byteLength":1064,
			"byteOffset":56380,
			"target":34962
		},
		{
			"buffer":0,
			"byteLength":1104,
			"byteOffset":57444,
			"target":34963
		},
		{
			"buffer":0,
			"byteLength":5328,
			"byteOffset":58548,
			"target":34962
		},
		{
			"buffer":0,
			"byteLength":5328,
			"byteOffset":63876,
			"target":34962
		},
		{
			"buffer":0,
			"byteLength":3552,
			"byteOffset":69204,
			"target":34962
		},
		{
			"buffer":0,
			"byteLength":5304,
			"byteOffset":72756,
			"target":34963
		},
		{
			"buffer":0,
			"byteLength":612,
			"byteOffset":78060,
			"target":34962
		},
		{
			"buffer":0,
			"byteLength":612,
			"byteOffset":78672,
			"target":34962
		},
		{
			"buffer":0,
			"byteLength":408,
			"byteOffset":79284,
			"target":34962
		},
		{
			"buffer":0,
			"byteLength":408,
			"byteOffset":79692,
			"target":34963
		}
	],
	"samplers":[
		{
			"magFilter":9728,
			"minFilter":9984
		}
	],
	"buffers":[
		{
			"byteLength":80100,
			"uri":"tile1_trees_rock.bin"
		}
	]
}
